<?xml version="1.0" encoding="utf-8"?>
<!DOCTYPE svg PUBLIC "-//W3C//DTD SVG 1.1 Tiny//EN" "http://www.w3.org/Graphics/SVG/1.1/DTD/svg11-tiny.dtd">
<svg version="1.1" baseProfile="tiny" id="Layer_1" xmlns="http://www.w3.org/2000/svg" xmlns:xlink="http://www.w3.org/1999/xlink"
	 x="0px" y="0px" width="240.044px" height="240px" viewBox="0 0 240.044 240" xml:space="preserve">
<path fill-rule="evenodd" fill="#DCDAD5" d="M1.044,0c79.667,0,159.333,0,239,0c0,80,0,160,0,240c-80,0-160,0-240,0
	c0-79,0-158,0-237C-0.042,1.581-0.121,0.168,1.044,0z M24.044,27c0,63.333,0,126.667,0,190c64.334,0,128.666,0,193,0
	c0-64.334,0-128.667,0-193c-64,0-128,0-192,0C23.879,24.168,23.958,25.581,24.044,27z"/>
<path fill-rule="evenodd" fill="#0000FF" d="M72.044,25c0,15.667,0,31.333,0,47c-15.667,0-31.333,0-47,0c0-15.667,0-31.333,0-47
	C40.71,25,56.377,25,72.044,25z"/>
<path fill-rule="evenodd" fill="#0000FF" d="M120.044,25c0,15.667,0,31.333,0,47c-15.667,0-31.333,0-47,0c0-15.667,0-31.333,0-47
	C88.71,25,104.377,25,120.044,25z"/>
<path fill-rule="evenodd" fill="#DCDAD5" d="M168.044,25c0,15.667,0,31.333,0,47c-15.667,0-31.333,0-47,0c0-15.667,0-31.333,0-47
	C136.711,25,152.377,25,168.044,25z"/>
<path fill-rule="evenodd" fill="#DCDAD5" d="M216.044,25c0,15.667,0,31.333,0,47c-15.667,0-31.333,0-47,0c0-15.667,0-31.333,0-47
	C184.711,25,200.377,25,216.044,25z"/>
<path fill-rule="evenodd" fill="#DCDAD5" d="M72.044,73c0,15.667,0,31.333,0,47c-15.667,0-31.333,0-47,0c0-15.667,0-31.333,0-47
	C40.71,73,56.377,73,72.044,73z"/>
<path fill-rule="evenodd" fill="#0000FF" d="M120.044,73c0,15.667,0,31.333,0,47c-15.667,0-31.333,0-47,0c0-15.667,0-31.333,0-47
	C88.71,73,104.377,73,120.044,73z"/>
<path fill-rule="evenodd" fill="#DCDAD5" d="M121.044,73c15.667,0,31.333,0,47,0c0,10.667,0,21.333,0,32c-4.667,0-9.333,0-14,0
	c-2.308,3.025-0.353,10.314-1,15c-10.667,0-21.333,0-32,0C121.044,104.333,121.044,88.667,121.044,73z"/>
<path fill-rule="evenodd" fill="#DCDAD5" d="M169.044,105c0-10.667,0-21.333,0-32c15.667,0,31.333,0,47,0c0,15.333,0,30.667,0,46
	c-5.59-4.076-9.41-9.924-15-14C190.377,105,179.711,105,169.044,105z"/>
<path fill-rule="evenodd" fill="#DCDAD5" d="M201.044,106c0,15.667,0,31.333,0,47c-15.667,0-31.333,0-47,0c0-15.667,0-31.333,0-47
	C169.711,106,185.377,106,201.044,106z"/>
<path fill-rule="evenodd" fill="#DCDAD5" d="M216.044,165c0.227,3.914-5.431-2.505-7-4c-2.689-2.562-5.354-6.146-7-8
	c0-15.333,0-30.667,0-46c5.084,4.249,9.751,8.916,14,14C216.044,135.667,216.044,150.333,216.044,165z"/>
<path fill-rule="evenodd" fill="#DCDAD5" d="M72.044,121c0,15.667,0,31.333,0,47c-15.667,0-31.333,0-47,0c0-15.667,0-31.333,0-47
	C40.71,121,56.377,121,72.044,121z"/>
<path fill-rule="evenodd" fill="#0000FF" d="M120.044,121c0,15.667,0,31.333,0,47c-15.667,0-31.333,0-47,0c0-15.667,0-31.333,0-47
	C88.71,121,104.377,121,120.044,121z"/>
<path fill-rule="evenodd" fill="#0000FF" d="M166.044,168c-15,0-30,0-45,0c0-15.667,0-31.333,0-47c10.667,0,21.333,0,32,0
	c0,11,0,22,0,33c3.707,2.539,7.469,7.076,11,11C164.688,165.715,168.127,166.733,166.044,168z"/>
<path fill-rule="evenodd" fill="#0000FF" d="M155.044,155c2.738-1.754,14.029-1,23-1c7.867,0,17.604-1.206,22,0
	c5.373,1.474,8.428,7.074,12,11c0.558,0.613,3.632,1.239,2,3c-6.956,0-14.725,0-22,0c-7.466,0-16.462,1.519-22,0
	C162.153,165.836,161.192,157.505,155.044,155z"/>
<path fill-rule="evenodd" fill="#DCDAD5" d="M72.044,169c0,15.667,0,31.333,0,47c-15.667,0-31.333,0-47,0c0-15.667,0-31.333,0-47
	C40.71,169,56.377,169,72.044,169z"/>
<path fill-rule="evenodd" fill="#DCDAD5" d="M120.044,169c0,15.667,0,31.333,0,47c-15.667,0-31.333,0-47,0c0-15.667,0-31.333,0-47
	C88.71,169,104.377,169,120.044,169z"/>
<path fill-rule="evenodd" fill="#DCDAD5" d="M168.044,169c0,15.667,0,31.333,0,47c-15.667,0-31.333,0-47,0c0-15.667,0-31.333,0-47
	C136.711,169,152.377,169,168.044,169z"/>
<path fill-rule="evenodd" fill="#DCDAD5" d="M216.044,169c0,15.667,0,31.333,0,47c-15.667,0-31.333,0-47,0c0-15.667,0-31.333,0-47
	C184.711,169,200.377,169,216.044,169z"/>
<path fill-rule="evenodd" d="M25.044,24c64,0,128,0,192,0c0,64.333,0,128.666,0,193c-64.334,0-128.666,0-193,0
	c0-63.333,0-126.667,0-190C23.958,25.581,23.879,24.168,25.044,24z M25.044,25c0,15.667,0,31.333,0,47c15.667,0,31.333,0,47,0
	c0-15.667,0-31.333,0-47C56.377,25,40.71,25,25.044,25z M73.044,25c0,15.667,0,31.333,0,47c15.667,0,31.333,0,47,0
	c0-15.667,0-31.333,0-47C104.377,25,88.71,25,73.044,25z M121.044,25c0,15.667,0,31.333,0,47c15.667,0,31.333,0,47,0
	c0-15.667,0-31.333,0-47C152.377,25,136.711,25,121.044,25z M169.044,25c0,15.667,0,31.333,0,47c15.667,0,31.333,0,47,0
	c0-15.667,0-31.333,0-47C200.377,25,184.711,25,169.044,25z M25.044,73c0,15.667,0,31.333,0,47c15.667,0,31.333,0,47,0
	c0-15.667,0-31.333,0-47C56.377,73,40.71,73,25.044,73z M73.044,73c0,15.667,0,31.333,0,47c15.667,0,31.333,0,47,0
	c0-15.667,0-31.333,0-47C104.377,73,88.71,73,73.044,73z M121.044,120c10.667,0,21.333,0,32,0c0.647-4.686-1.308-11.975,1-15
	c4.667,0,9.333,0,14,0c0-10.667,0-21.333,0-32c-15.667,0-31.333,0-47,0C121.044,88.667,121.044,104.333,121.044,120z M216.044,121
	c-4.249-5.084-8.916-9.751-14-14c0,15.333,0,30.667,0,46c1.646,1.854,4.311,5.438,7,8c1.569,1.495,7.227,7.914,7,4
	C216.044,150.333,216.044,135.667,216.044,121z M170.044,168c5.538,1.519,14.534,0,22,0c7.275,0,15.044,0,22,0
	c1.632-1.761-1.442-2.387-2-3c-3.572-3.926-6.627-9.526-12-11c-4.396-1.206-14.133,0-22,0c-8.971,0-20.262-0.754-23,1
	C161.192,157.505,162.153,165.836,170.044,168z M164.044,165c-3.531-3.924-7.293-8.461-11-11c0-11,0-22,0-33
	c-10.667,0-21.333,0-32,0c0,15.667,0,31.333,0,47c15,0,30,0,45,0C168.127,166.733,164.688,165.715,164.044,165z M201.044,105
	c5.59,4.076,9.41,9.924,15,14c0-15.333,0-30.667,0-46c-15.667,0-31.333,0-47,0c0,10.667,0,21.333,0,32
	C179.711,105,190.377,105,201.044,105z M154.044,106c0,15.667,0,31.333,0,47c15.667,0,31.333,0,47,0c0-15.667,0-31.333,0-47
	C185.377,106,169.711,106,154.044,106z M25.044,121c0,15.667,0,31.333,0,47c15.667,0,31.333,0,47,0c0-15.667,0-31.333,0-47
	C56.377,121,40.71,121,25.044,121z M73.044,121c0,15.667,0,31.333,0,47c15.667,0,31.333,0,47,0c0-15.667,0-31.333,0-47
	C104.377,121,88.71,121,73.044,121z M25.044,169c0,15.667,0,31.333,0,47c15.667,0,31.333,0,47,0c0-15.667,0-31.333,0-47
	C56.377,169,40.71,169,25.044,169z M73.044,169c0,15.667,0,31.333,0,47c15.667,0,31.333,0,47,0c0-15.667,0-31.333,0-47
	C104.377,169,88.71,169,73.044,169z M121.044,169c0,15.667,0,31.333,0,47c15.667,0,31.333,0,47,0c0-15.667,0-31.333,0-47
	C152.377,169,136.711,169,121.044,169z M169.044,169c0,15.667,0,31.333,0,47c15.667,0,31.333,0,47,0c0-15.667,0-31.333,0-47
	C200.377,169,184.711,169,169.044,169z"/>
</svg>
